<?xml version="1.0" encoding="UTF-8" standalone="no"?>
<!-- Created with Inkscape (http://www.inkscape.org/) -->

<svg
   xmlns:dc="http://purl.org/dc/elements/1.1/"
   xmlns:cc="http://creativecommons.org/ns#"
   xmlns:rdf="http://www.w3.org/1999/02/22-rdf-syntax-ns#"
   xmlns:svg="http://www.w3.org/2000/svg"
   xmlns="http://www.w3.org/2000/svg"
   xmlns:sodipodi="http://sodipodi.sourceforge.net/DTD/sodipodi-0.dtd"
   xmlns:inkscape="http://www.inkscape.org/namespaces/inkscape"
   width="210mm"
   height="297mm"
   id="svg7389"
   version="1.1"
   inkscape:version="0.48.0 r9654"
   sodipodi:docname="track1D.svg">
  <defs
     id="defs7391" />
  <sodipodi:namedview
     id="base"
     pagecolor="#ffffff"
     bordercolor="#666666"
     borderopacity="1.0"
     inkscape:pageopacity="0.0"
     inkscape:pageshadow="2"
     inkscape:zoom="1"
     inkscape:cx="209.7686"
     inkscape:cy="520"
     inkscape:document-units="px"
     inkscape:current-layer="g7601"
     showgrid="false"
     inkscape:window-width="1680"
     inkscape:window-height="975"
     inkscape:window-x="0"
     inkscape:window-y="24"
     inkscape:window-maximized="1" />
  <metadata
     id="metadata7394">
    <rdf:RDF>
      <cc:Work
         rdf:about="">
        <dc:format>image/svg+xml</dc:format>
        <dc:type
           rdf:resource="http://purl.org/dc/dcmitype/StillImage" />
        <dc:title />
      </cc:Work>
    </rdf:RDF>
  </metadata>
  <g
     inkscape:label="Calque 1"
     inkscape:groupmode="layer"
     id="layer1">
    <g
       id="g7578"
       transform="translate(579.20029,-3.56255)">
      <path
         d="m -789.01315,516.87111 551.25,0 0,-179.875 -551.25,0 0,179.875 z"
         style="fill:none;stroke:#000000;stroke-width:1.25;stroke-linecap:butt;stroke-linejoin:miter;stroke-miterlimit:10;stroke-opacity:1;stroke-dasharray:none"
         id="path7322"
         inkscape:connector-curvature="0" />
      <g
         id="g7324"
         transform="matrix(1.25,0,0,-1.25,-904.01315,1209.3711)">
        <text
           transform="matrix(0,1,1,0,82.6699,600.225)"
           id="text7326">
          <tspan
             style="font-size:14px;font-variant:normal;font-weight:normal;writing-mode:lr-tb;fill:#000000;fill-opacity:1;fill-rule:nonzero;stroke:none;font-family:Helvetica;-inkscape-font-specification:Helvetica"
             x="0 3.108 10.892 14.784 22.568001 30.351999 37.352001 40.459999 44.352001"
             y="0"
             sodipodi:role="line"
             id="tspan7328">intensity</tspan>
        </text>
      </g>
      <path
         id="path7336"
         style="fill:none;stroke:#ff0000;stroke-width:1.875;stroke-linecap:butt;stroke-linejoin:miter;stroke-miterlimit:10;stroke-opacity:1;stroke-dasharray:none"
         d="m -315.63815,484.20058 0,32.67053 4.375,0 0,-32.67053 2.125,0 0,-48.94889 2.25,0 0,-65.22723 2.125,0 0,-16.27835 21.625,0 0,16.27835 2.125,0 0,65.22723 2.125,0 0,48.94889 2.25,0 0,32.67053 4.25,0 0,-32.67053 2.25,0 0,-48.94889 2.125,0 0,-65.22723 2.125,0 0,-16.27835 21.625,0 0,16.27835 2.125,0 0,65.22723 2.25,0 0,48.94889 2.125,0 0,32.67053 m -240,-163.125 21.625,0 0,16.27835 2.25,0 0,65.22723 2.125,0 0,48.94889 2.125,0 0,32.67053 4.375,0 0,-32.67053 2.125,0 0,-48.94889 2.125,0 0,-65.22723 2.25,0 0,-16.27835 19.375,0 0,9.56211 2.25,0 0,25.61279 2.125,0 0,63.97505 2.125,0 0,47.92437 2.125,0 0,16.05068 21.625,0 0,-32.67053 2.25,0 0,-95.27957 2.125,0 0,-28.80016 2.125,0 0,-6.37474 21.625,0 0,3.18737 2.25,0 0,57.60031 2.125,0 0,38.36227 2.125,0 0,31.98752 2.125,0 0,31.98753 2.25,0 0,-32.67053 2.125,0 0,-48.94889 2.125,0 0,-65.22723 2.25,0 0,-16.27835 21.625,0 0,16.27835 2.125,0 0,65.22723 2.125,0 0,48.94889 2.125,0 m -317.74999,-130.45447 0,16.27835 2.125,0 0,65.22723 2.25,0 0,48.94889 2.125,0 0,32.67053 4.375,0 0,-32.67053 2.125,0 0,-48.94889 2.12499,0 0,-65.22723 2.25001,0 0,-16.27835 21.49999,0 0,16.27835 2.25001,0 0,65.22723 2.12499,0 0,48.94889 2.125,0 0,32.67053 8.75,0 0,-32.67053 2.125,0 0,-48.94889 2.125,0 0,-65.22723 2.125,0 0,-16.27835 21.625,0 0,16.27835 2.25,0 0,65.22723 2.125,0 0,48.94889 2.125,0 0,32.67053 8.625,0 0,-32.67053 2.25,0 0,-48.94889 2.125,0 0,-65.22723 2.125,0 0,-16.27835 19.5,0 0,9.56211 2.125,0 0,25.61279 2.25,0 0,63.97505 2.125,0 0,63.97505 19.375,0 0,-32.67053 2.25,0 0,-48.94889 2.125,0 0,-65.22723 2.125,0 0,-16.27835 m -311.25,16.27835 2.125,0 0,65.22723 2.25,0 0,48.94889 2.125,0 0,32.67053 4.25,0 0,-32.67053 2.25,0 0,-48.94889 2.125,0 0,-65.22723 2.125,0 0,-16.27835 21.625,0 0,16.27835 2.25,0 0,65.22723 2.125,0 0,48.94889 2.125,0 0,32.67053 4.375,0 0,-32.67053 2.125,0 0,-48.94889 2.125,0 0,-65.22723 2.25,0 0,-16.27835 21.62501,0 0,16.27835 2.125,0 0,65.22723 2.125,0 0,48.94889 2.12499,0 0,32.67053 4.375,0 0,-32.67053 2.125,0 0,-48.94889 2.25,0 0,-65.22723 2.125,0 0,-16.27835 21.625,0 0,16.27835 2.125,0 0,65.22723 2.125,0 0,48.94889 2.25,0 0,32.67053 4.25,0 0,-3.18737 2.25,0 0,-60.78768 2.125,0 0,-63.97505 2.125,0 0,-16.05069 2.25,0 0,-19.12421 19.375,0" />
      <path
         d="m -789.01315,516.87111 551.25,0 0,-179.875 -551.25,0 0,179.875 z"
         style="fill:none;stroke:#000000;stroke-width:1.25;stroke-linecap:butt;stroke-linejoin:miter;stroke-miterlimit:10;stroke-opacity:1;stroke-dasharray:none"
         id="path7338"
         inkscape:connector-curvature="0" />
    </g>
    <g
       id="g7601"
       transform="translate(-170.58542,-87.72737)">
      <path
         d="m 513.27256,601.03593 551.25004,0 0,-179.875 -551.25004,0 0,179.875 z"
         style="fill:none;stroke:#000000;stroke-width:1.25;stroke-linecap:butt;stroke-linejoin:miter;stroke-miterlimit:10;stroke-opacity:1;stroke-dasharray:none"
         id="path7242"
         inkscape:connector-curvature="0" />
      <path
         id="path7262"
         style="fill:none;stroke:#ff0000;stroke-width:1.875;stroke-linecap:butt;stroke-linejoin:miter;stroke-miterlimit:10;stroke-opacity:1;stroke-dasharray:none"
         d="m 965.02256,494.53593 0,-4.375 2.25,0 0,-1.5 2.125,0 0,1.875 2.125,0 0,4.875 2.25,0 0,7.625 2.125,0 0,9.5 2.125,0 0,10.375 2.25,0 0,10.125 2.125,0 0,9 2.125,0 0,6.625 2.125,0 0,3.5 4.375,0 0,-3.625 2.125,0 0,-7 2.25,0 0,-9.75 2.125,0 0,-11.75 2.125,0 0,-12.5 2.12504,0 0,-12.125 2.25,0 0,-10.375 2.125,0 0,-7.875 2.125,0 0,-4.375 2.25,0 0,-0.5 2.125,0 0,3.375 2.125,0 0,6.875 2.25,0 0,9.5 2.125,0 0,11.125 2.125,0 0,11.5 2.125,0 0,10.375 2.25,0 0,8.25 2.125,0 0,4.875 2.125,0 0,1 2.25,0 0,-3.125 2.125,0 0,-7.25 2.125,0 0,-10.375 2.125,0 0,-12.5 2.25,0 0,-13.375 2.125,0 0,-12.5 2.125,0 0,-10.25 2.25,0 0,-6.625 2.125,0 0,-1.875 2.125,0 0,3.125 2.25,0 0,8.375 2.125,0 0,12.875 2.125,0 0,16.125 2.125,0 0,18.125 2.25,0 0,18.25 2.125,0 0,16.5 m -211.87504,-12.875 0,5.125 2.125,0 0,0.625 2.25,0 0,-3.75 2.125,0 0,-8 2.125,0 0,-11.625 2.25,0 0,-14 2.125,0 0,-15.25 2.125,0 0,-15 2.25,0 0,-13.375 2.125,0 0,-10.375 2.125,0 0,-6.375 2.125,0 0,-1.5 2.25,0 0,3.875 2.125,0 0,9 2.125,0 0,13.75 2.25,0 0,17.375 2.125,0 0,20 2.125,0 0,21 2.125,0 0,20.25 2.25,0 0,18 2.125,0 0,14.375 2.125,0 0,9.375 2.25,0 0,3.625 2.125,0 0,-2.25 2.125,0 0,-8.125 2.25,0 0,-13.375 2.125,0 0,-17.625 2.125,0 0,-20.5 2.125,0 0,-21.625 2.25,0 0,-21.375 2.125,0 0,-19.375 2.125,0 0,-16.125 2.25,0 0,-11.625 2.125,0 0,-6.5 2.125,0 0,-1.25 2.125,0 0,4 2.25,0 0,8.375 2.125,0 0,11.875 2.125,0 0,14.125 2.25,0 0,15 2.125,0 0,14.625 2.125,0 0,12.875 2.25,0 0,10.125 2.125,0 0,6.625 2.125,0 0,2.875 2.125,0 0,-0.875 2.25,0 0,-4.25 2.125,0 0,-6.875 2.125,0 0,-8.625 2.25,0 0,-9 2.125,0 0,-8.625 2.125,0 0,-6.875 2.125,0 m -226.87499,-54.375 2.12499,0 0,-0.625 2.125,0 0,6.875 2.125,0 0,13.5 2.25,0 0,18.625 2.125,0 0,21.875 2.125,0 0,22.75 2.25,0 0,21.125 2.125,0 0,17.625 2.125,0 0,12 2.25,0 0,5.375 2.125,0 0,-1.875 2.125,0 0,-9 2.125,0 0,-15.375 2.25,0 0,-20.125 2.125,0 0,-23.125 2.125,0 0,-24 2.25,0 0,-22.625 2.125,0 0,-19.25 2.125,0 0,-14.125 2.125,0 0,-7.875 2.25,0 0,-0.75 2.125,0 0,6.25 2.125,0 0,12.875 2.25,0 0,18.375 2.125,0 0,22.25 2.125,0 0,24.5 2.25,0 0,24.75 2.125,0 0,23.25 2.125,0 0,19.75 2.125,0 0,15.25 2.25,0 0,9.375 2.125,0 0,3.25 2.125,0 0,-3 2.25,0 0,-8.875 2.125,0 0,-13.75 2.125,0 0,-17.5 2.125,0 0,-19.75 2.25,0 0,-20.625 2.125,0 0,-19.75 2.125,0 0,-17.625 2.25,0 0,-14.125 2.125,0 0,-9.75 2.125,0 0,-4.875 4.375,0 0,4.875 2.125,0 0,9 2.125,0 0,12.25 2.25,0 0,14.125 2.125,0 0,14.75 2.125,0 0,14.125 2.25,0 0,12.125 2.125,0 0,9.125 2.125,0 m -226.99999,-46.875 2.25,0 0,20 2.125,0 0,19.875 2.125,0 0,17.625 2.12499,0 0,13.375 2.25001,0 0,7.5 2.12499,0 0,0.875 2.125,0 0,-6.125 2.25,0 0,-12.25 2.125,0 0,-17 2.125,0 0,-19.875 2.25,0 0,-20.5 2.125,0 0,-18.75 2.125,0 0,-14.875 2.125,0 0,-9.375 2.25,0 0,-2.75 2.125,0 0,3.875 2.125,0 0,10.125 2.25,0 0,15.125 2.125,0 0,18.125 2.125,0 0,19 2.125,0 0,17.5 2.25,0 0,13.75 2.125,0 0,8.5 2.125,0 0,2 2.25,0 0,-4.75 2.125,0 0,-11.25 2.125,0 0,-16.25 2.25,0 0,-19.625 2.125,0 0,-20.625 2.125,0 0,-19.25 2.125,0 0,-15.625 2.25,0 0,-9.875 2.125,0 0,-3 2.125,0 0,4.5 2.25,0 0,11.625 2.125,0 0,18 2.125,0 0,22.25 2.125,0 0,24.5 2.25,0 0,24.25 2.125,0 0,21.375 2.125,0 0,16.25 2.25,0 0,9.625 2.125,0 0,1.75 2.125,0 0,-6.125 2.25,0 0,-13.375 2.125,0 0,-19.375 2.125,0 0,-23.25 2.125,0 0,-24.75 2.25,0 0,-23.75 2.125,0 0,-20.5 2.125,0 0,-15 2.25,0 0,-8.25 m -224.875,127.375 2.125,0 0,8 2.25,0 0,2 2.125,0 0,-4.125 2.125,0 0,-10.125 2.125,0 0,-15.125 2.25,0 0,-18.625 2.125,0 0,-20.375 2.125,0 0,-19.875 2.25,0 0,-17.375 2.125,0 0,-13.125 2.125,0 0,-7.5 2.25,0 0,-1.25 2.125,0 0,5.375 2.125,0 0,11.125 2.125,0 0,15.625 2.25,0 0,18.5 2.125,0 0,19.25 2.125,0 0,17.625 2.25,0 0,14.25 2.125,0 0,9.25 2.125,0 0,3.125 2.125,0 0,-3.25 2.25,0 0,-9.25 2.125,0 0,-14.25 2.125,0 0,-17.5 2.25,0 0,-18.75 2.125,0 0,-18 2.125,0 0,-14.875 2.25,0 0,-10.125 2.125,0 0,-4.375 2.125,0 0,2.125 2.125,0 0,8.375 2.25,0 0,13.5 2.125,0 0,17.125 2.125,0 0,18.875 2.25,0 0,18.25 2.125,0 0,15.5 2.125,0 0,11.125 2.125,0 0,5.25 2.25,0 0,-1.125 2.125,0 0,-7.5 2.125,0 0,-12.875 2.25,0 0,-16.875 2.125,0 0,-18.625 2.125,0 0,-18.5 2.25,0 0,-15.875 2.125,0 0,-11.5 2.125,0 0,-5.625 2.125,0 0,1 2.25,0 0,7.625 2.125,0 0,13.25 2.125,0 0,17.625" />
      <path
         id="path7272"
         style="fill:none;stroke:#218c21;stroke-width:1.87500000000000000;stroke-linecap:butt;stroke-linejoin:miter;stroke-miterlimit:10;stroke-opacity:1;stroke-dasharray:15, 7.50000000000000000;stroke-dashoffset:0"
         d="m 965.02256,512.03593 2.25,0 0,-2.625 2.125,0 0,-1.25 4.375,0 0,1.375 2.125,0 0,2.75 2.125,0 0,3.5 2.25,0 0,3.875 2.125,0 0,4 2.125,0 0,3.375 2.125,0 0,2.375 2.25,0 0,1 2.125,0 0,-0.625 2.125,0 0,-2.25 2.25,0 0,-3.625 2.125,0 0,-4.875 2.125,0 0,-5.625 2.12504,0 0,-5.75 2.25,0 0,-5.25 2.125,0 0,-4.375 2.125,0 0,-3 2.25,0 0,-1.25 2.125,0 0,0.5 2.125,0 0,2.25 2.25,0 0,3.75 2.125,0 0,4.75 2.125,0 0,5.375 2.125,0 0,5.125 2.25,0 0,4.5 2.125,0 0,3.375 2.125,0 0,1.75 2.25,0 0,0.125 2.125,0 0,-1.5 2.125,0 0,-2.875 2.125,0 0,-3.875 2.25,0 0,-4.375 2.125,0 0,-4.25 2.125,0 0,-3.5 2.25,0 0,-2.25 2.125,0 0,-0.625 2.125,0 0,1 2.25,0 0,2.875 2.125,0 0,4.25 2.125,0 0,5.25 2.125,0 0,5.625 2.25,0 0,5.375 2.125,0 0,4.25 m -211.87504,4.625 0,-1.5 2.125,0 0,-4 2.25,0 0,-5.875 2.125,0 0,-7.5 2.125,0 0,-8.125 2.25,0 0,-8.375 2.125,0 0,-7.625 2.125,0 0,-6.375 2.25,0 0,-4.625 2.125,0 0,-2.375 4.25,0 0,2.5 2.25,0 0,4.875 2.125,0 0,6.875 2.125,0 0,8.375 2.25,0 0,9.5 2.125,0 0,9.875 2.125,0 0,9.625 2.125,0 0,8.875 2.25,0 0,7.5 2.125,0 0,5.625 2.125,0 0,3.5 2.25,0 0,1 2.125,0 0,-1.375 2.125,0 0,-3.625 2.25,0 0,-5.875 2.125,0 0,-7.625 2.125,0 0,-8.875 2.125,0 0,-9.75 2.25,0 0,-9.75 2.125,0 0,-9.375 2.125,0 0,-8.375 2.25,0 0,-6.875 2.125,0 0,-4.875 2.125,0 0,-2.75 2.125,0 0,-0.5 2.25,0 0,1.75 2.125,0 0,3.75 2.125,0 0,5.375 2.25,0 0,6.625 2.125,0 0,7.25 2.125,0 0,7.25 2.25,0 0,6.625 2.125,0 0,5.75 2.125,0 0,4.25 2.125,0 0,2.625 2.25,0 0,0.75 2.125,0 0,-0.75 2.125,0 0,-2.25 2.25,0 0,-3.25 2.125,0 0,-3.875 2.125,0 0,-3.875 2.125,0 0,-3.375 m -224.74999,-26.375 0,-2.25 2.125,0 0,1.125 2.125,0 0,4.375 2.24999,0 0,7.25 2.125,0 0,9.25 2.125,0 0,10.375 2.25,0 0,10.25 2.125,0 0,9.125 2.125,0 0,6.875 2.25,0 0,3.875 2.125,0 0,0.375 2.125,0 0,-3.25 2.125,0 0,-6.625 2.25,0 0,-9.5 2.125,0 0,-11.5 2.125,0 0,-12.375 2.25,0 0,-12.125 2.125,0 0,-10.75 2.125,0 0,-8.25 2.125,0 0,-4.875 2.25,0 0,-1 2.125,0 0,2.875 2.125,0 0,6.75 2.25,0 0,9.875 2.125,0 0,12.375 2.125,0 0,13.625 2.25,0 0,13.75 2.125,0 0,12.75 2.125,0 0,10.75 2.125,0 0,7.75 2.25,0 0,4.25 2.125,0 0,0.375 2.125,0 0,-3.25 2.25,0 0,-6.5 2.125,0 0,-9.25 2.125,0 0,-10.75 2.125,0 0,-11.625 2.25,0 0,-11.125 2.125,0 0,-9.875 2.125,0 0,-7.75 2.25,0 0,-5 2.125,0 0,-2 2.125,0 0,1 2.25,0 0,3.625 2.125,0 0,6 2.125,0 0,7.5 2.125,0 0,8.125 2.25,0 0,8.125 2.125,0 0,7.125 2.125,0 0,5.5 2.25,0 0,3.375 2.125,0 0,0.875 2.125,0 m -226.99999,-16 2.25,0 0,7.75 2.125,0 0,7.25 2.125,0 0,5.625 2.12499,0 0,3.5 2.25001,0 0,0.875 2.12499,0 0,-1.875 2.125,0 0,-4.625 2.25,0 0,-6.875 2.125,0 0,-8.625 2.125,0 0,-9.375 2.25,0 0,-9.25 2.125,0 0,-8.25 2.125,0 0,-6.375 2.125,0 0,-3.75 2.25,0 0,-0.875 2.125,0 0,2.125 2.125,0 0,4.875 2.25,0 0,7.125 2.125,0 0,8.375 2.125,0 0,8.875 2.125,0 0,8.375 2.25,0 0,7 2.125,0 0,4.625 2.125,0 0,1.875 2.25,0 0,-1.125 2.125,0 0,-4 2.125,0 0,-6.5 2.25,0 0,-8.375 2.125,0 0,-9.25 2.125,0 0,-9.125 2.125,0 0,-7.875 2.25,0 0,-6 2.125,0 0,-3.125 4.375,0 0,3.25 2.125,0 0,6.25 2.125,0 0,8.625 2.125,0 0,10.25 2.25,0 0,10.75 2.125,0 0,10.375 2.125,0 0,8.75 2.25,0 0,6.25 2.125,0 0,3.125 2.125,0 0,-0.125 2.25,0 0,-3.625 2.125,0 0,-6.625 2.125,0 0,-9 2.125,0 0,-10.375 2.25,0 0,-10.75 2.125,0 0,-10 2.125,0 0,-8.125 2.25,0 0,-5.625 2.125,0 m -227,47.875 2.125,0 0,0.75 2.25,0 0,-1.375 2.125,0 0,-3.75 2.125,0 0,-5.5 2.125,0 0,-7.125 2.25,0 0,-7.75 2.125,0 0,-7.75 2.125,0 0,-6.875 2.25,0 0,-5.25 2.125,0 0,-3.125 2.125,0 0,-0.5 2.25,0 0,2.25 2.125,0 0,4.75 2.125,0 0,6.875 2.125,0 0,8.5 2.25,0 0,9 2.125,0 0,8.75 2.125,0 0,7.75 2.25,0 0,6 2.125,0 0,3.5 2.125,0 0,0.75 2.125,0 0,-1.875 2.25,0 0,-4.5 2.125,0 0,-6.375 2.125,0 0,-7.625 2.25,0 0,-8.125 2.125,0 0,-7.625 2.125,0 0,-6.625 2.25,0 0,-4.75 2.125,0 0,-2.625 2.125,0 0,-0.25 2.125,0 0,1.875 2.25,0 0,3.625 2.125,0 0,5 2.125,0 0,5.5 2.25,0 0,5.25 2.125,0 0,4.375 2.125,0 0,2.875 2.125,0 0,1.125 2.25,0 0,-0.75 2.125,0 0,-2.625 2.125,0 0,-4 2.25,0 0,-4.875 2.125,0 0,-5.125 2.125,0 0,-4.375 2.25,0 0,-3.25 2.125,0 0,-1.375 2.125,0 0,0.75 2.125,0 0,3 2.25,0 0,5 2.125,0 0,6.625 2.125,0 0,7.625" />
      <path
         id="path7278"
         style="fill:none;stroke:#0000ff;stroke-width:1.875;stroke-linecap:butt;stroke-linejoin:miter;stroke-miterlimit:10;stroke-opacity:1;stroke-dasharray:none;stroke-dashoffset:0"
         d="m 962.89756,510.16093 101.62504,0 m -326.37503,0 224.74999,0 m -449.625,0 224.87501,0" />
      <path
         d="m 513.27256,601.03593 551.25004,0 0,-179.875 -551.25004,0 0,179.875 z"
         style="fill:none;stroke:#000000;stroke-width:1.25;stroke-linecap:butt;stroke-linejoin:miter;stroke-miterlimit:10;stroke-opacity:1;stroke-dasharray:none"
         id="path7280"
         inkscape:connector-curvature="0" />
    </g>
    <g
       id="g7646"
       transform="translate(577.41458,-5.60227)">
      <text
         style="font-size:15px"
         y="721.37341"
         x="10.876354"
         id="text7250">
        <tspan
           id="tspan7252"
           sodipodi:role="line"
           y="721.37341"
           x="10.876354 20.606335 30.336315 39.086315 42.971325 47.836315 51.721325 61.451305"
           style="font-size:17.5px;font-variant:normal;font-weight:normal;writing-mode:lr-tb;fill:#000000;fill-opacity:1;fill-rule:nonzero;stroke:none;font-family:Helvetica;-inkscape-font-specification:Helvetica">position</tspan>
      </text>
      <g
         transform="translate(-748,279)"
         id="g7618">
        <path
           inkscape:connector-curvature="0"
           id="path7282"
           style="fill:none;stroke:#000000;stroke-width:1.25;stroke-linecap:butt;stroke-linejoin:miter;stroke-miterlimit:10;stroke-opacity:1;stroke-dasharray:none"
           d="m 513.27256,421.03593 551.25004,0 0,-179.875 -551.25004,0 0,179.875 z" />
        <path
           id="path7298"
           style="fill:none;stroke:#ff0000;stroke-width:1.875;stroke-linecap:butt;stroke-linejoin:miter;stroke-miterlimit:10;stroke-opacity:1;stroke-dasharray:none"
           d="m 962.89756,339.78593 2.125,0 0,11.5 2.25,0 0,-82.75 2.125,0 0,27 2.125,0 0,24.875 2.25,0 0,-45.375 2.125,0 0,44.5 2.125,0 0,22.75 2.25,0 0,11.375 2.125,0 0,4 2.125,0 0,28.5 2.125,0 0,-34 2.25,0 0,5.625 2.125,0 0,-24.125 2.125,0 0,-10.375 2.25,0 0,19.5 2.125,0 0,-11.375 2.125,0 0,24.875 2.12504,0 0,-46.125 2.25,0 0,23.5 2.125,0 0,-9.625 2.125,0 0,-43.875 2.25,0 0,41 2.125,0 0,5.875 2.125,0 0,11.5 2.25,0 0,-1.75 2.125,0 0,2.5 2.125,0 0,-24 2.125,0 0,64.25 2.25,0 0,-37.25 2.125,0 0,-7.625 2.125,0 0,20.375 2.25,0 0,27.75 2.125,0 0,-20.5 2.125,0 0,-83.875 2.125,0 0,77.5 2.25,0 0,-28.5 2.125,0 0,-36.875 2.125,0 0,55.125 2.25,0 0,-58.75 2.125,0 0,74.125 2.125,0 0,0.375 2.25,0 0,-52.375 2.125,0 0,-11.625 2.125,0 0,33.5 2.125,0 0,59.5 2.25,0 0,-59.625 2.125,0 0,20.75 m -214.00004,10.25 2.125,0 0,-23 2.125,0 0,19 2.25,0 0,32.125 2.125,0 0,-15.25 2.125,0 0,-80.875 2.25,0 0,-34 2.125,0 0,22 2.125,0 0,9.25 2.25,0 0,24.75 2.125,0 0,-36.375 2.125,0 0,21.375 2.125,0 0,36 2.25,0 0,-78.625 2.125,0 0,57.125 2.125,0 0,-2.5 2.25,0 0,50.875 2.125,0 0,29.125 2.125,0 0,-35.75 2.125,0 0,60.5 2.25,0 0,-3.5 2.125,0 0,-75.875 2.125,0 0,17.5 2.25,0 0,-16.875 2.125,0 0,60.5 2.125,0 0,-24.625 2.25,0 0,8.375 2.125,0 0,-40.75 2.125,0 0,66.75 2.125,0 0,-3.375 2.25,0 0,-79.25 2.125,0 0,-20.5 2.125,0 0,24.875 2.25,0 0,8 2.125,0 0,-68.625 2.125,0 0,8.625 2.125,0 0,24.125 2.25,0 0,-36.375 2.125,0 0,53 2.125,0 0,17.75 2.25,0 0,-52.375 2.125,0 0,-18.125 2.125,0 0,45.875 2.25,0 0,37.75 2.125,0 0,-42.5 2.125,0 0,46.75 2.125,0 0,29.875 2.25,0 0,-58.875 2.125,0 0,49.375 2.125,0 0,-38 2.25,0 0,-12.5 2.125,0 0,-14.5 2.125,0 0,29.75 m -224.74999,-14.75 2.12499,0 0,-3.375 2.125,0 0,1.375 2.125,0 0,-41.375 2.25,0 0,-13.375 2.125,0 0,38 2.125,0 0,22.75 2.25,0 0,17.75 2.125,0 0,18.25 2.125,0 0,-12.875 2.25,0 0,-0.625 2.125,0 0,8.375 2.125,0 0,26.75 2.125,0 0,-12.375 2.25,0 0,2.25 2.125,0 0,-85.75 2.125,0 0,14.75 2.25,0 0,-43.5 2.125,0 0,61.125 2.125,0 0,-16.75 2.125,0 0,-25.25 2.25,0 0,-8.375 2.125,0 0,36.625 2.125,0 0,-4.125 2.25,0 0,-17.5 2.125,0 0,30.75 2.125,0 0,-5.25 2.25,0 0,-1.625 2.125,0 0,49 2.125,0 0,-1.5 2.125,0 0,59.75 2.25,0 0,-29.5 2.125,0 0,-57.625 2.125,0 0,57.625 2.25,0 0,-33.75 2.125,0 0,12.625 2.125,0 0,38 2.125,0 0,-89.25 2.25,0 0,4.375 2.125,0 0,-53.875 2.125,0 0,-12.375 2.25,0 0,47.875 2.125,0 0,27.5 2.125,0 0,-42 2.25,0 0,8.5 2.125,0 0,12.875 2.125,0 0,-8.375 2.125,0 0,-25.875 2.25,0 0,47.25 2.125,0 0,19.125 2.125,0 0,9.125 2.25,0 0,-38.625 2.125,0 0,49.25 m -224.87499,-54.125 2.25,0 0,-9.25 2.125,0 0,25.875 2.125,0 0,48.625 2.12499,0 0,3 2.25001,0 0,-43.375 2.12499,0 0,16.875 2.125,0 0,-11.375 2.25,0 0,48.75 2.125,0 0,-89.875 2.125,0 0,21.75 2.25,0 0,-61.25 2.125,0 0,13.25 2.125,0 0,-9.25 2.125,0 0,40 2.25,0 0,22.375 2.125,0 0,8.375 2.125,0 0,-7.125 2.25,0 0,-50.625 2.125,0 0,-7.125 2.125,0 0,33.25 2.125,0 0,5.625 2.25,0 0,84.25 2.125,0 0,11.625 2.125,0 0,14.75 2.25,0 0,-37 2.125,0 0,-48.5 2.125,0 0,-63.375 2.25,0 0,15.875 2.125,0 0,4.125 2.125,0 0,49.125 2.125,0 0,-13.375 2.25,0 0,12.625 2.125,0 0,-5.625 2.125,0 0,-79.375 2.25,0 0,81.5 2.125,0 0,2 2.125,0 0,-74.5 2.125,0 0,57.875 2.25,0 0,34.125 2.125,0 0,10.625 2.125,0 0,-19.875 2.25,0 0,-8.375 2.125,0 0,22.375 2.125,0 0,59.125 2.25,0 0,-26.625 2.125,0 0,-16.875 2.125,0 0,-91 2.125,0 0,38.375 2.25,0 0,-1.375 2.125,0 0,-35.75 2.125,0 0,35.125 2.25,0 0,7 m -224.875,35.5 2.125,0 0,-56.875 2.25,0 0,29.375 2.125,0 0,21.25 2.125,0 0,-21.125 2.125,0 0,-14.375 2.25,0 0,-10.875 2.125,0 0,-5.25 2.125,0 0,-38.75 2.25,0 0,38.375 2.125,0 0,47.5 2.125,0 0,-2.375 2.25,0 0,-42.375 2.125,0 0,15.125 2.125,0 0,18.75 2.125,0 0,-19.875 2.25,0 0,-9.375 2.125,0 0,-45.125 2.125,0 0,24.5 2.25,0 0,70 2.125,0 0,30.75 2.125,0 0,-22.875 2.125,0 0,47.75 2.25,0 0,-65.125 2.125,0 0,30 2.125,0 0,-43.375 2.25,0 0,-22.25 2.125,0 0,13.75 2.125,0 0,19.5 2.25,0 0,-27.5 2.125,0 0,-8.625 2.125,0 0,4.625 2.125,0 0,-47.25 2.25,0 0,12.5 2.125,0 0,7.625 2.125,0 0,34.25 2.25,0 0,-6.75 2.125,0 0,-22 2.125,0 0,66.875 2.125,0 0,34.875 2.25,0 0,-51.375 2.125,0 0,23.5 2.125,0 0,-63 2.25,0 0,-20 2.125,0 0,4.875 2.125,0 0,-21.25 2.25,0 0,27.875 2.125,0 0,31.5 2.125,0 0,-43.625 2.125,0 0,-5.125 2.25,0 0,54 2.125,0 0,-43 2.125,0 0,17.5" />
        <path
           inkscape:connector-curvature="0"
           id="path7300"
           style="fill:none;stroke:#000000;stroke-width:1.25;stroke-linecap:butt;stroke-linejoin:miter;stroke-miterlimit:10;stroke-opacity:1;stroke-dasharray:none"
           d="m 513.27256,421.03593 551.25004,0 0,-179.875 -551.25004,0 0,179.875 z" />
      </g>
    </g>
    <g
       id="g7631"
       transform="translate(579.20029,-4.43745)">
      <g
         transform="translate(-751,98)"
         id="g7589">
        <path
           inkscape:connector-curvature="0"
           id="path7302"
           style="fill:none;stroke:#000000;stroke-width:1.25;stroke-linecap:butt;stroke-linejoin:miter;stroke-miterlimit:10;stroke-opacity:1;stroke-dasharray:none"
           d="m -38.013149,600.87111 551.249999,0 0,-179.875 -551.249999,0 0,179.875 z" />
        <g
           transform="matrix(1.25,0,0,-1.25,-153.01315,1113.3711)"
           id="g7304">
          <text
             id="text7306"
             transform="matrix(0,1,1,0,82.6699,456.225)">
            <tspan
               id="tspan7308"
               sodipodi:role="line"
               y="0"
               x="0 3.108 10.892 14.784 22.568001 30.351999 37.352001 40.459999 44.352001"
               style="font-size:14px;font-variant:normal;font-weight:normal;writing-mode:lr-tb;fill:#000000;fill-opacity:1;fill-rule:nonzero;stroke:none;font-family:Helvetica;-inkscape-font-specification:Helvetica">intensity</tspan>
          </text>
        </g>
        <path
           id="path7318"
           style="fill:none;stroke:#ff0000;stroke-width:1.875;stroke-linecap:butt;stroke-linejoin:miter;stroke-miterlimit:10;stroke-opacity:1;stroke-dasharray:none"
           d="m 413.73685,472.49611 0,-1.5 2.25,0 0,4.625 2.125,0 0,-0.125 2.125,0 0,1.125 2.25,0 0,0.5 2.125,0 0,-3 2.125,0 0,4 2.25,0 0,9.125 2.125,0 0,53.5 2.125,0 0,31.25 2.125,0 0,26.75 2.25,0 0,-3.5 2.125,0 0,-20.875 2.125,0 0,-37.875 2.25,0 0,-44.5 2.125,0 0,-10.5 2.125,0 0,-2.25 2.125,0 0,3.375 2.25,0 0,3.375 2.125,0 0,-3.625 2.125,0 0,0.5 2.25,0 0,0.625 2.125,0 0,4 2.125,0 0,-0.875 2.25,0 0,1.375 2.125,0 0,7.375 2.125,0 0,48.875 2.125,0 0,31.125 2.25,0 0,25.5 2.125,0 0,-4.875 2.125,0 0,-20.25 2.25,0 0,-29.25 2.125,0 0,-43.875 2.125,0 0,-11.5 2.125,0 0,0.625 2.25,0 0,4 2.125,0 0,0.625 2.125,0 0,-5 2.25,0 0,3.5 2.125,0 0,0.5 2.125,0 0,0.625 2.25,0 0,-2.125 2.125,0 0,4.125 2.125,0 0,7.875 2.125,0 0,42.375 2.25,0 0,31.5 2.125,0 0,21.125 m -211.875,-31.875 0,31.875 2.125,0 0,-2.75 2.25,0 0,-29 2.125,0 0,-42.5 2.125,0 0,-55.25 2.25,0 0,-14.75 2.125,0 0,0.375 2.125,0 0,0.25 2.25,0 0,-0.375 2.125,0 0,-3.875 2.125,0 0,3.125 2.125,0 0,-0.375 2.25,0 0,2.5 2.125,0 0,-0.375 2.125,0 0,10.75 2.25,0 0,21.625 2.125,0 0,55.125 2.125,0 0,36.875 2.125,0 0,17.25 2.25,0 0,-2.875 2.125,0 0,4.25 2.125,0 0,-0.75 2.25,0 0,-1.375 2.125,0 0,1.375 2.125,0 0,-3.5 2.25,0 0,1.5 2.125,0 0,-1.5 2.125,0 0,-0.625 2.125,0 0,-25 2.25,0 0,-77.25 2.125,0 0,-26.125 2.125,0 0,-6.25 2.25,0 0,1.125 2.125,0 0,1.125 2.125,0 0,3.875 2.125,0 0,1.125 2.25,0 0,-0.25 2.125,0 0,-3 2.125,0 0,1.125 2.25,0 0,-1 2.125,0 0,4.625 2.125,0 0,-1.125 2.25,0 0,48.75 2.125,0 0,27.75 2.125,0 0,24.625 2.125,0 0,26.5 2.25,0 0,-24.75 2.125,0 0,-37.125 2.125,0 0,-48.875 2.25,0 0,-12.25 2.125,0 0,-3.625 2.125,0 0,2.5 2.125,0 m -224.74999,-29 0,2.125 2.125,0 0,-1.375 2.125,0 0,2.25 2.24999,0 0,-0.625 2.125,0 0,-2 2.125,0 0,16.875 2.25,0 0,57.5 2.125,0 0,50.375 2.125,0 0,29.5 2.25,0 0,2.75 2.125,0 0,-5.625 2.125,0 0,1.375 2.125,0 0,-30 2.25,0 0,-44.5 2.125,0 0,-64.75 2.125,0 0,-14.5 2.25,0 0,3 2.125,0 0,0.125 2.125,0 0,0.125 2.125,0 0,0.125 2.25,0 0,1.5 2.125,0 0,-1.25 2.125,0 0,-0.5 2.25,0 0,0.875 2.125,0 0,11.25 2.125,0 0,19 2.25,0 0,60.875 2.125,0 0,62.125 2.125,0 0,-1.375 2.125,0 0,2.125 2.25,0 0,-2.125 2.125,0 0,-1.375 2.125,0 0,3.5 2.25,0 0,-0.75 2.125,0 0,-3.5 2.125,0 0,2.125 2.125,0 0,-28.375 2.25,0 0,-49 2.125,0 0,-58.625 2.125,0 0,-12.625 2.25,0 0,-3.25 2.125,0 0,5.25 2.125,0 0,-0.5 2.25,0 0,-1.125 2.125,0 0,3 2.125,0 0,-5.25 2.125,0 0,2.375 2.25,0 0,3.75 2.125,0 0,-4 2.125,0 0,16.375 2.25,0 0,56.375 2.125,0 0,45.875 2.125,0 m -226.999994,-119.75 2.25,0 0,-2.375 2.125,0 0,14.875 2.125,0 0,63.625 2.12499,0 0,43.125 2.25001,0 0,31.625 2.12499,0 0,-2 2.125,0 0,-0.875 2.25,0 0,-58.75 2.125,0 0,-58.25 2.125,0 0,-13.75 2.25,0 0,-21.5 2.125004,0 0,1.25 2.125,0 0,-3 2.125,0 0,-0.125 2.25,0 0,4 2.125,0 0,-2.25 2.125,0 0,0.625 2.25,0 0,0.5 2.125,0 0,-1.5 2.125,0 0,15.25 2.125,0 0,59.375 2.25,0 0,50.25 2.125,0 0,27.25 2.125,0 0,4.25 2.25,0 0,-35 2.125,0 0,-45.625 2.125,0 0,-61.75 2.25,0 0,-13.375 2.125,0 0,-3.625 2.125,0 0,2.75 4.375,0 0,-2.875 2.125,0 0,0.625 2.125,0 0,1.375 2.25,0 0,-1.5 2.125,0 0,2.125 2.125,0 0,-2.125 2.125,0 0,14 2.25,0 0,66.875 2.125,0 0,42.25 2.125,0 0,34.5 2.25,0 0,-0.75 2.125,0 0,1.375 2.125,0 0,-3.5 2.25,0 0,-30.25 2.125,0 0,-47.125 2.125,0 0,-60.5 2.125,0 0,-12.625 2.25,0 0,-5.625 2.125,0 0,5.75 2.125,0 0,-2.125 2.25,0 0,-0.625 2.125,0 m -226.999999,36 2.125,0 0,54.625 2.25,0 0,39.75 2.125,0 0,26.25 2.125,0 0,-2.75 2.125,0 0,-23.125 2.25,0 0,-45.625 2.125,0 0,-50.375 2.125,0 0,-13.125 2.25,0 0,-1.875 2.125,0 0,-3.375 2.125,0 0,-0.5 2.25,0 0,3.125 2.1249997,0 0,1.625 2.125,0 0,-6.125 2.125,0 0,0.25 2.25,0 0,1 2.125,0 0,0.25 2.12500001,0 0,13.375 2.24999999,0 0,56.875 2.125,0 0,41.75 2.125,0 0,29.375 2.125,0 0,-0.75 2.2500003,0 0,-28.875 2.125,0 0,-45.375 2.125,0 0,-54.875 2.25,0 0,-18 2.125,0 0,2.375 2.125,0 0,-2.5 2.25,0 0,4.625 2.125,0 0,-3.875 2.125,0 0,1 2.125,0 0,1.75 2.25,0 0,-2.5 2.125,0 0,-1.75 2.124995,0 0,-0.25 2.25,0 0,17.75 2.125,0 0,58.125 2.125,0 0,38.875 2.125,0 0,30.75 2.25,0 0,-1.375 2.125,0 0,-26.75 2.125,0 0,-47.875 2.25,0 0,-59.25 2.125,0 0,-13.75 2.125,0 0,2.625 2.25,0 0,1.125 2.125,0 0,-4.5 2.125,0 0,0.5 2.125,0 0,-1 2.25,0 0,0.5 2.125,0 0,-1 2.125,0 0,2.625" />
        <path
           inkscape:connector-curvature="0"
           id="path7320"
           style="fill:none;stroke:#000000;stroke-width:1.25;stroke-linecap:butt;stroke-linejoin:miter;stroke-miterlimit:10;stroke-opacity:1;stroke-dasharray:none"
           d="m -38.013149,600.87111 551.249999,0 0,-179.875 -551.249999,0 0,179.875 z" />
      </g>
      <text
         id="text7627"
         x="-555.30695"
         y="721.37341"
         style="font-size:15px">
        <tspan
           style="font-size:17.5px;font-variant:normal;font-weight:normal;writing-mode:lr-tb;fill:#000000;fill-opacity:1;fill-rule:nonzero;stroke:none;font-family:Helvetica;-inkscape-font-specification:Helvetica"
           x="-555.30695 -545.57697 -535.84698 -527.09698 -523.21198 -518.34698 -514.46198 -504.73199"
           y="721.37341"
           sodipodi:role="line"
           id="tspan7629">position</tspan>
      </text>
    </g>
  </g>
</svg>
