<?xml version="1.0" encoding="UTF-8" standalone="no"?>
<!-- Created with Inkscape (http://www.inkscape.org/) -->

<svg
   xmlns:dc="http://purl.org/dc/elements/1.1/"
   xmlns:cc="http://creativecommons.org/ns#"
   xmlns:rdf="http://www.w3.org/1999/02/22-rdf-syntax-ns#"
   xmlns:svg="http://www.w3.org/2000/svg"
   xmlns="http://www.w3.org/2000/svg"
   xmlns:sodipodi="http://sodipodi.sourceforge.net/DTD/sodipodi-0.dtd"
   xmlns:inkscape="http://www.inkscape.org/namespaces/inkscape"
   id="svg3023"
   version="1.1"
   inkscape:version="0.48.0 r9654"
   width="765"
   height="990"
   xml:space="preserve"
   sodipodi:docname="typicalRdf.svg"><metadata
     id="metadata3029"><rdf:RDF><cc:Work
         rdf:about=""><dc:format>image/svg+xml</dc:format><dc:type
           rdf:resource="http://purl.org/dc/dcmitype/StillImage" /><dc:title></dc:title></cc:Work></rdf:RDF></metadata><defs
     id="defs3027" /><sodipodi:namedview
     pagecolor="#ffffff"
     bordercolor="#666666"
     borderopacity="1"
     objecttolerance="10"
     gridtolerance="10"
     guidetolerance="10"
     inkscape:pageopacity="0"
     inkscape:pageshadow="2"
     inkscape:window-width="1680"
     inkscape:window-height="975"
     id="namedview3025"
     showgrid="false"
     inkscape:zoom="2"
     inkscape:cx="186.2419"
     inkscape:cy="95.25262"
     inkscape:window-x="0"
     inkscape:window-y="24"
     inkscape:window-maximized="1"
     inkscape:current-layer="g3031" /><g
     id="g3031"
     inkscape:groupmode="layer"
     inkscape:label="ink_ext_XXXXXX"
     transform="matrix(1.25,0,0,-1.25,0,990)"><path
       inkscape:connector-curvature="0"
       id="path3035"
       style="fill:none;stroke:#000000;stroke-width:0.40000001;stroke-linecap:butt;stroke-linejoin:miter;stroke-miterlimit:10;stroke-opacity:1;stroke-dasharray:1.60000001, 3.20000002;stroke-dashoffset:0"
       d="m 80.1,83.910327 139.4,0" /><path
       inkscape:connector-curvature="0"
       id="path3037"
       style="fill:none;stroke:#000000;stroke-width:0.49999997;stroke-linecap:butt;stroke-linejoin:miter;stroke-miterlimit:10;stroke-opacity:1;stroke-dasharray:none"
       d="m 80.1,83.910327 3.15,0 m 136.25,0 -3.15,0" /><g
       id="g3039"
       transform="matrix(1,0,0,0.86638743,0,12.349931)"><text
         id="text3041"
         transform="matrix(1,0,0,-1,72.0082,80.1148)"><tspan
           id="tspan3043"
           y="0"
           x="0"
           style="font-size:7px;font-variant:normal;font-weight:normal;writing-mode:lr-tb;fill:#000000;fill-opacity:1;fill-rule:nonzero;stroke:none;font-family:Helvetica;-inkscape-font-specification:Helvetica">1</tspan></text>
</g><path
       inkscape:connector-curvature="0"
       id="path3045"
       style="fill:none;stroke:#000000;stroke-width:0.40000001;stroke-linecap:butt;stroke-linejoin:miter;stroke-miterlimit:10;stroke-opacity:1;stroke-dasharray:1.60000001, 3.20000002;stroke-dashoffset:0"
       d="m 135.85,62.877655 0,93.934535"
       sodipodi:nodetypes="cc" /><path
       inkscape:connector-curvature="0"
       id="path3047"
       style="fill:none;stroke:#000000;stroke-width:0.49999997;stroke-linecap:butt;stroke-linejoin:miter;stroke-miterlimit:10;stroke-opacity:1;stroke-dasharray:none"
       d="m 135.85,62.877655 0,3.590944 m 0,85.783661 0,-3.59094" /><path
       inkscape:connector-curvature="0"
       id="path3049"
       style="fill:none;stroke:#000000;stroke-width:0.80000001;stroke-linecap:butt;stroke-linejoin:miter;stroke-miterlimit:10;stroke-opacity:1;stroke-dasharray:3.20000002, 0.80000001;stroke-dashoffset:0"
       d="m 152.6,62.877655 0,89.374605" /><path
       inkscape:connector-curvature="0"
       id="path3051"
       style="fill:none;stroke:#000000;stroke-width:0.49999997;stroke-linecap:butt;stroke-linejoin:miter;stroke-miterlimit:10;stroke-opacity:1;stroke-dasharray:none"
       d="m 152.6,62.877655 0,3.590944 m 0,90.343591 0,-5.41538"
       sodipodi:nodetypes="cccc" /><g
       id="g3053" /><path
       inkscape:connector-curvature="0"
       id="path3059"
       style="fill:none;stroke:#000000;stroke-width:0.49999997;stroke-linecap:butt;stroke-linejoin:miter;stroke-miterlimit:10;stroke-opacity:1;stroke-dasharray:none"
       d="m 80.1,62.877655 139.4,0 0,93.934535 -139.4,0 z"
       sodipodi:nodetypes="ccccc" /><path
       id="path3069"
       style="fill:none;stroke:#ff0000;stroke-width:1.60000002;stroke-linecap:butt;stroke-linejoin:miter;stroke-miterlimit:10;stroke-opacity:1;stroke-dasharray:none"
       d="m 155.55,73.707486 0.75,0.170997 0.7,0.227997 0.75,0.341994 0.7,0.398994 0.75,0.569991 0.7,0.569991 0.75,0.569991 0.7,0.62699 0.75,0.68399 0.7,0.740988 0.75,0.797988 0.7,0.911985 0.75,0.968985 0.7,0.740988 0.75,0.854987 0.7,0.911986 0.75,0.968985 0.7,1.082983 0.75,1.025984 0.7,1.082983 0.75,0.911985 0.7,0.968985 0.75,0.854987 0.7,0.512992 0.75,0.740989 0.7,0.512992 0.75,0.284996 0.7,0.227995 0.75,-0.057 0.7,-0.057 0.75,-0.170997 0.7,-0.284995 0.75,-0.170998 0.7,-0.227996 0.75,-0.170998 0.75,-0.284995 0.7,-0.170997 0.75,-0.227997 0.7,-0.170997 0.75,-0.113999 0.7,-0.227996 0.75,-0.170997 0.7,-0.227996 0.75,-0.227997 0.7,-0.227996 0.75,-0.341995 0.7,-0.455993 0.75,-0.62699 0.7,-0.683989 0.75,-0.854987 0.7,-0.854987 0.75,-0.854986 0.7,-0.740989 0.75,-0.683989 0.7,-0.62699 0.75,-0.569991 0.7,-0.512992 0.75,-0.512993 0.7,-0.398993 0.75,-0.284995 0.7,-0.284996 0.75,-0.113998 0.7,-0.057 0.75,0.057 0.7,0.057 0.75,0.227997 0.7,0.113999 0.75,0.227996 0.7,0.341995 0.75,0.284995 0.7,0.341995 0.75,0.398994 0.7,0.398993 0.75,0.398994 0.7,0.512992 0.75,0.341994 0.7,0.512992 0.75,0.455993 0.7,0.455993 0.75,0.398994 0.7,0.284995 0.75,0.341996 0.75,0.284995 0.7,0.341994 0.75,0.284996 0.7,0.341994 0.75,0.284996 0.7,0.227997 0.1,0 M 80.1,62.877655 l 13.8,0 0.7,0.057 0.75,-0.057 4.35,0 0.7,0.057 0.75,-0.057 3.6,0 0.75,0.057 0.7,-0.057 2.2,0 0.7,0.057 4.35,0 0.75,0.057 0.75,0 0.7,0.057 0.75,0 0.7,0.057 0.75,0.113997 0.7,0.113998 0.75,0.227997 0.7,0.170997 0.75,0.227997 0.7,0.341994 0.75,0.398994 0.7,0.512992 0.75,0.740989 0.7,0.797987 0.75,1.082983 0.7,1.367978 0.75,1.766973 0.7,2.222965 0.75,2.963954 0.7,3.590944 0.75,4.445931 0.7,5.015921 0.75,5.699906 0.7,6.383908 0.75,8.20787 0.7,10.43083 0.75,12.08381 0.7,10.71584 0.75,7.52388 0.7,1.99497 0.75,-2.67896 0.7,-7.06789 0.75,-9.57585 0.7,-9.91784 0.75,-10.48784 0.7,-9.80385 0.75,-8.150867 0.7,-6.269903 0.75,-4.502929 0.7,-3.248949 0.75,-2.108968 0.7,-1.424977 0.75,-1.082983 0.7,-0.797988 0.75,-0.455993 0.75,-0.398993 0.7,-0.284996 0.75,-0.284996 0.7,-0.113998 0.75,-0.170997 0.7,-0.057 0.75,-0.057 0.7,-0.113999 0.75,0.057 0.7,0.057 0.75,0.227996 0.7,0.170997"
       inkscape:connector-curvature="0" /><path
       inkscape:connector-curvature="0"
       id="path3071"
       style="fill:none;stroke:#000000;stroke-width:0.49999997;stroke-linecap:butt;stroke-linejoin:miter;stroke-miterlimit:10;stroke-opacity:1;stroke-dasharray:none"
       d="m 80.1,62.877655 139.4,0 0,93.934535 -139.4,0 z"
       sodipodi:nodetypes="ccccc" /><text
       xml:space="preserve"
       style="font-size:8.80000019px;font-style:normal;font-variant:normal;font-weight:500;font-stretch:normal;line-height:125%;letter-spacing:0px;word-spacing:0px;fill:#000000;fill-opacity:1;stroke:none;font-family:URW Palladio L;-inkscape-font-specification:URW Palladio L Medium"
       x="153.99997"
       y="-141.60005"
       id="text3866"
       sodipodi:linespacing="125%"
       transform="scale(1,-1)"><tspan
         sodipodi:role="line"
         x="153.99997"
         y="-141.60005"
         id="tspan4055">\small Maximum</tspan></text>
<text
       xml:space="preserve"
       style="font-size:8.19103432px;font-style:normal;font-variant:normal;font-weight:500;font-stretch:normal;text-align:center;line-height:125%;letter-spacing:0px;word-spacing:0px;text-anchor:middle;fill:#000000;fill-opacity:1;stroke:none;font-family:URW Palladio L;-inkscape-font-specification:URW Palladio L Medium"
       x="139.188"
       y="-59.733604"
       id="text3874"
       sodipodi:linespacing="125%"
       transform="scale(1.0743454,-0.93079935)"><tspan
         sodipodi:role="line"
         id="tspan3876"
         x="139.188"
         y="-59.733604">$r/\sigma$</tspan></text>
<text
       xml:space="preserve"
       style="font-size:8.80000019px;font-style:normal;font-variant:normal;font-weight:500;font-stretch:normal;text-align:center;line-height:125%;letter-spacing:0px;word-spacing:0px;text-anchor:middle;fill:#000000;fill-opacity:1;stroke:none;font-family:URW Palladio L;-inkscape-font-specification:URW Palladio L Medium"
       x="118.20606"
       y="71.240211"
       id="text3878"
       sodipodi:linespacing="125%"
       transform="matrix(0,1,1,0,0,0)"><tspan
         sodipodi:role="line"
         id="tspan3880"
         x="118.20606"
         y="71.240211">$g(r)$</tspan></text>
<text
       transform="scale(1,-1)"
       sodipodi:linespacing="125%"
       id="text4076"
       y="-130.40001"
       x="153.99997"
       style="font-size:8.80000019px;font-style:normal;font-variant:normal;font-weight:500;font-stretch:normal;line-height:125%;letter-spacing:0px;word-spacing:0px;fill:#000000;fill-opacity:1;stroke:none;font-family:URW Palladio L;-inkscape-font-specification:URW Palladio L Medium"
       xml:space="preserve"><tspan
         id="tspan4080"
         y="-119.40001"
         x="153.99997"
         sodipodi:role="line">\small bond length</tspan></text>
</g></svg>